HIERARCHY
ROOT Hips
{
	OFFSET 0.00000 0.00000 0.00000
	CHANNELS 6 Xposition Yposition Zposition Zrotation Yrotation Xrotation 
	JOINT LHipJoint
	{
		OFFSET 0 0 0
		CHANNELS 3 Zrotation Yrotation Xrotation
		JOINT LeftUpLeg
		{
			OFFSET 1.84395 -1.68683 0.74144
			CHANNELS 3 Zrotation Yrotation Xrotation
			JOINT LeftLeg
			{
				OFFSET 2.27037 -6.23779 0.00000
				CHANNELS 3 Zrotation Yrotation Xrotation
				JOINT LeftFoot
				{
					OFFSET 2.56918 -7.05877 0.00000
					CHANNELS 3 Zrotation Yrotation Xrotation
					JOINT LeftToeBase
					{
						OFFSET 0.22276 -0.61202 1.71784
						CHANNELS 3 Zrotation Yrotation Xrotation
						End Site
						{
							OFFSET 0.00000 -0.00000 0.91613
						}
					}
				}
			}
		}
	}
	JOINT RHipJoint
	{
		OFFSET 0 0 0
		CHANNELS 3 Zrotation Yrotation Xrotation
		JOINT RightUpLeg
		{
			OFFSET -1.76833 -1.68684 0.74144
			CHANNELS 3 Zrotation Yrotation Xrotation
			JOINT RightLeg
			{
				OFFSET -2.49360 -6.85110 0.00000
				CHANNELS 3 Zrotation Yrotation Xrotation
				JOINT RightFoot
				{
					OFFSET -2.55538 -7.02085 0.00000
					CHANNELS 3 Zrotation Yrotation Xrotation
					JOINT RightToeBase
					{
						OFFSET -0.21516 -0.59115 1.68050
						CHANNELS 3 Zrotation Yrotation Xrotation
						End Site
						{
							OFFSET -0.00000 -0.00000 0.89604
						}
					}
				}
			}
		}
	}
	JOINT LowerBack
	{
		OFFSET 0 0 0
		CHANNELS 3 Zrotation Yrotation Xrotation
		JOINT Spine
		{
			OFFSET 0.06382 1.72312 -0.19613
			CHANNELS 3 Zrotation Yrotation Xrotation
			JOINT Spine1
			{
				OFFSET -0.00055 1.73507 0.23859
				CHANNELS 3 Zrotation Yrotation Xrotation
				JOINT Neck
				{
					OFFSET 0 0 0
					CHANNELS 3 Zrotation Yrotation Xrotation
					JOINT Neck1
					{
						OFFSET 0.03638 1.65562 0.09633
						CHANNELS 3 Zrotation Yrotation Xrotation
						JOINT Head
						{
							OFFSET 0.06388 1.62807 -0.32386
							CHANNELS 3 Zrotation Yrotation Xrotation
							End Site
							{
								OFFSET 0.00995 1.67644 -0.12021
							}
						}
					}
				}
				JOINT LeftShoulder
				{
					OFFSET 0 0 0
					CHANNELS 3 Zrotation Yrotation Xrotation
					JOINT LeftArm
					{
						OFFSET 3.09648 1.42991 0.28122
						CHANNELS 3 Zrotation Yrotation Xrotation
						JOINT LeftForeArm
						{
							OFFSET 5.11878 -0.00000 -0.00000
							CHANNELS 3 Zrotation Yrotation Xrotation
							JOINT LeftHand
							{
								OFFSET 3.59971 -0.00000 0.00000
								CHANNELS 3 Zrotation Yrotation Xrotation
								JOINT LeftFingerBase
								{
									OFFSET 0 0 0
									CHANNELS 3 Zrotation Yrotation Xrotation
									JOINT LeftHandIndex1
									{
										OFFSET 0.62877 -0.00000 0.00000
										CHANNELS 3 Zrotation Yrotation Xrotation
										End Site
										{
											OFFSET 0.50693 -0.00000 0.00000
										}
									}
								}
								JOINT LThumb
								{
									OFFSET 0 0 0
									CHANNELS 3 Zrotation Yrotation Xrotation
									End Site
									{
										OFFSET 0.51467 -0.00000 0.51467
									}
								}
							}
						}
					}
				}
				JOINT RightShoulder
				{
					OFFSET 0 0 0
					CHANNELS 3 Zrotation Yrotation Xrotation
					JOINT RightArm
					{
						OFFSET -3.33565 1.14597 0.05047
						CHANNELS 3 Zrotation Yrotation Xrotation
						JOINT RightForeArm
						{
							OFFSET -5.49020 -0.00000 0.00000
							CHANNELS 3 Zrotation Yrotation Xrotation
							JOINT RightHand
							{
								OFFSET -3.20659 -0.00000 -0.00000
								CHANNELS 3 Zrotation Yrotation Xrotation
								JOINT RightFingerBase
								{
									OFFSET 0 0 0
									CHANNELS 3 Zrotation Yrotation Xrotation
									JOINT RightHandIndex1
									{
										OFFSET -0.69188 -0.00000 0.00000
										CHANNELS 3 Zrotation Yrotation Xrotation
										End Site
										{
											OFFSET -0.55781 -0.00000 0.00000
										}
									}
								}
								JOINT RThumb
								{
									OFFSET 0 0 0
									CHANNELS 3 Zrotation Yrotation Xrotation
									End Site
									{
										OFFSET -0.56633 -0.00000 0.56633
									}
								}
							}
						}
					}
				}
			}
		}
	}
}
MOTION
Frames: 8
Frame Time: .0083333
0.5783 17.5452 8.2141 0 0 0 0 0 0 -21 0 0 0 0 0 0 0 0 0 0 0 0 0 0 21 0 0 0 0 0 0 0 0 0 0 0 0 0 0 0 0 0 0 0 0 0 0 -16 0 0 21 0 0 11 0 0 0 -8 0 0 0 0 0 0 0 0 0 0 0 0 0 0 0 0 0 0 0 0 8 0 0 0 0 0 0 0 0 0 0 0 0 0 0 0 0 0
0.5783 17.5452 8.2141 -6.3469 -3.2787 7.9193 0.0000 0.0000 0.0000 -18.9067 -32.6986 20.7810 0.0420 -1.3230 -3.6380 -4.3609 36.8734 -31.3832 0.0133 0.7456 2.0491 0.0000 0.0000 0.0000 25.2967 24.1321 8.9495 -0.0032 -0.3638 0.9996 0.7452 -19.0575 -19.5784 -0.0106 -0.6651 1.8277 8.5152 1.7547 9.9602 -2.1921 3.7395 -12.1002 -8.3334 0.2451 -19.0911 9.7586 10.6109 -3.7310 -26.1578 11.9494 -14.7880 -9.5732 6.4071 -1.1619 0.0000 -0.0000 0.0000 -85.1882 8.7567 -21.4133 7.8152 -13.2529 -0.9093 -0.0000 -0.0000 50.0896 15.7787 -14.2890 -3.9894 -7.1250 0.0000 -0.0000 -7.9637 15.2527 5.6437 0.0000 -0.0000 0.0000 94.7853 -19.2790 3.5894 -10.7679 17.9316 -1.7038 0.0000 0.0000 38.9337 4.8219 -27.9954 -2.2676 7.1250 -0.0000 -0.0000 36.5462 -54.0106 -9.0187
0.5767 17.5458 8.2138 -6.3561 -3.3453 7.9115 0.0000 0.0000 0.0000 -18.9377 -32.7158 20.8502 0.0422 -1.3262 -3.6468 -4.3697 36.9351 -31.5139 0.0171 0.8434 2.3180 0.0000 0.0000 0.0000 25.2997 24.1176 8.9308 -0.0033 -0.3705 1.0179 0.7341 -18.9657 -19.5303 -0.0121 -0.7092 1.9491 8.2861 1.7435 9.3899 -2.0107 3.6276 -11.6580 -7.8849 0.3350 -18.1478 9.8468 10.9003 -3.8379 -26.7178 12.3549 -14.6243 -9.7198 6.6077 -0.9625 -0.0000 -0.0000 0.0000 -85.5782 7.7915 -22.1516 7.7698 -13.1791 -0.8989 -0.0000 -0.0000 50.6577 15.8043 -14.2358 -3.9817 -7.1250 0.0000 -0.0000 -7.9457 15.3049 5.6217 -0.0000 -0.0000 0.0000 94.3488 -18.3368 3.6665 -10.7008 17.8282 -1.6832 0.0000 0.0000 39.1770 4.9559 -27.9400 -2.3266 7.1250 -0.0000 -0.0000 36.6244 -53.9407 -8.9756
0.5754 17.5463 8.2141 -6.4099 -3.4055 7.9170 0.0000 0.0000 0.0000 -18.9186 -32.7560 20.9208 0.0423 -1.3279 -3.6514 -4.3726 36.9853 -31.6521 0.0200 0.9120 2.5066 0.0000 0.0000 0.0000 25.3635 24.1335 8.9165 -0.0034 -0.3788 1.0409 0.7276 -18.9060 -19.4900 -0.0150 -0.7916 2.1756 8.5996 1.8193 9.9239 -2.2448 3.8280 -12.0036 -8.4551 0.2851 -18.9100 10.2210 10.9190 -3.3820 -26.7902 12.5805 -13.6886 -9.7680 6.6866 -0.7001 0.0000 -0.0000 0.0000 -85.1403 8.5367 -20.8831 7.8163 -13.2546 -0.9095 -0.0000 -0.0000 49.8817 15.6623 -14.2973 -3.9608 -7.1250 0.0000 -0.0000 -8.0430 15.2540 5.7008 0.0000 -0.0000 0.0000 94.8655 -19.0487 3.0197 -10.7549 17.9116 -1.6998 0.0000 0.0000 39.3061 4.8570 -27.7781 -2.2678 7.1250 -0.0000 -0.0000 36.4089 -53.8269 -8.8028
0.5741 17.5469 8.2139 -6.4589 -3.4669 7.8998 0.0000 0.0000 0.0000 -18.9135 -32.7759 20.9906 0.0419 -1.3217 -3.6345 -4.3779 37.0275 -31.7462 0.0202 0.9178 2.5227 0.0000 0.0000 0.0000 25.4282 24.1261 8.9152 -0.0036 -0.3850 1.0579 0.7250 -18.8676 -19.4439 -0.0153 -0.7999 2.1984 8.7487 1.8483 10.1035 -2.3424 3.9048 -12.0849 -8.6965 0.2672 -19.1168 10.4401 11.0855 -3.3166 -26.8298 13.0026 -12.7185 -9.7357 6.8418 -0.3398 -0.0000 0.0000 0.0000 -84.9612 8.7553 -20.2340 7.8499 -13.3093 -0.9173 -0.0000 -0.0000 49.4845 15.6618 -14.3100 -3.9642 -7.1250 0.0000 -0.0000 -8.0434 15.2411 5.7033 -0.0000 0.0000 0.0000 95.0626 -19.2509 2.8872 -10.7850 17.9580 -1.7091 0.0000 0.0000 39.2166 4.7438 -27.7920 -2.2158 7.1250 -0.0000 -0.0000 36.3172 -53.8592 -8.8061
0.5731 17.5483 8.2133 -6.4520 -3.5450 7.8428 0.0000 0.0000 0.0000 -19.0287 -32.8046 21.1326 0.0417 -1.3172 -3.6221 -4.3941 37.1195 -31.9161 0.0230 0.9782 2.6887 0.0000 0.0000 0.0000 25.4149 24.0434 8.9214 -0.0036 -0.3861 1.0608 0.7180 -18.7710 -19.3331 -0.0125 -0.7218 1.9838 8.7638 1.8650 10.1360 -2.3695 3.9261 -12.0210 -8.7407 0.2794 -19.0456 10.4396 11.3180 -3.4870 -26.7352 13.5123 -11.7297 -9.5990 7.0286 0.0512 -0.0000 0.0000 0.0000 -84.9653 8.6306 -20.2582 7.8467 -13.3040 -0.9165 -0.0000 -0.0000 49.6417 15.7561 -14.3007 -3.9866 -7.1250 0.0000 -0.0000 -7.9791 15.2426 5.6566 -0.0000 0.0000 0.0000 95.0643 -19.1608 2.8944 -10.7894 17.9647 -1.7104 0.0000 0.0000 39.2040 4.8258 -27.9160 -2.2635 7.1250 -0.0000 -0.0000 36.4878 -53.9452 -8.9389
0.5721 17.5491 8.2116 -6.4247 -3.6029 7.8099 0.0000 0.0000 0.0000 -19.1532 -32.8736 21.2461 0.0410 -1.3071 -3.5942 -4.3799 37.1745 -32.1969 0.0303 1.1230 3.0874 0.0000 0.0000 0.0000 25.3712 23.9876 8.9018 -0.0037 -0.3926 1.0788 0.7105 -18.6929 -19.2698 -0.0098 -0.6405 1.7601 8.7510 1.8932 10.1579 -2.3920 3.9582 -11.9671 -8.7658 0.3004 -18.9790 10.6146 11.4820 -3.3633 -26.9314 13.8844 -11.0294 -9.6321 7.1824 0.3293 0.0000 0.0000 0.0000 -84.9919 8.4892 -20.2786 7.8306 -13.2780 -0.9128 -0.0000 -0.0000 49.8048 15.8745 -14.3078 -4.0200 -7.1250 0.0000 -0.0000 -7.8987 15.2252 5.6014 0.0000 0.0000 0.0000 95.0185 -19.0568 2.9370 -10.7764 17.9447 -1.7064 0.0000 0.0000 39.1640 5.0048 -27.9805 -2.3528 7.1250 -0.0000 -0.0000 36.7003 -53.9646 -9.0214
0.5706 17.5491 8.2090 -6.3910 -3.6298 7.7991 0.0000 0.0000 0.0000 -19.1869 -32.8644 21.2334 0.0404 -1.2972 -3.5668 -4.3715 37.1723 -32.2529 0.0311 1.1375 3.1272 0.0000 0.0000 0.0000 25.3296 23.9780 8.8738 -0.0039 -0.4026 1.1062 0.7030 -18.6620 -19.3045 -0.0089 -0.6095 1.6749 8.7186 1.9028 10.1630 -2.4189 3.9595 -11.9340 -8.7780 0.3072 -18.9366 10.9944 11.6393 -3.0466 -27.3220 14.2317 -10.4801 -9.7836 7.3421 0.5661 -0.0000 0.0000 0.0000 -84.9957 8.4241 -20.1414 7.8377 -13.2894 -0.9144 -0.0000 -0.0000 49.7787 15.9174 -14.3491 -4.0428 -7.1250 0.0000 -0.0000 -7.8699 15.1793 5.5885 -0.0000 0.0000 0.0000 94.9824 -18.9796 3.0855 -10.7600 17.9195 -1.7013 0.0000 0.0000 39.0214 5.1157 -28.0588 -2.4113 7.1250 -0.0000 -0.0000 36.8620 -54.0076 -9.1117
